<mxfile host="app.diagrams.net" modified="2023-08-08T12:56:17.025Z" agent="Mozilla/5.0 (Windows NT 10.0; Win64; x64; rv:109.0) Gecko/20100101 Firefox/116.0" version="21.6.2" etag="Z7YtC7JKG-uwMHKgDgbo" type="github">
  <diagram name="Page-1" id="sU-4Yn2LDhdJjKrcg49X">
    <mxGraphModel>
      <root>
        <mxCell id="0" />
        <mxCell id="1" parent="0" />
      </root>
    </mxGraphModel>
  </diagram>
</mxfile>
